<?xml version="1.0" encoding="utf-8"?>
<!-- Generator: Adobe Adobe Illustrator 24.2.0, SVG Export Plug-In . SVG Version: 6.00 Build 0)  -->
<svg version="1.1" id="Layer_1" xmlns="http://www.w3.org/2000/svg" xmlns:xlink="http://www.w3.org/1999/xlink" x="0px" y="0px"
	 width="50px" height="50px" viewBox="0 0 50 50" style="enable-background:new 0 0 50 50;" xml:space="preserve">
<style type="text/css">
	.st0{fill:#316FF6;}
	.st1{fill:#FF4500;}
	.st2{fill:#FFFFFF;}
	.st3{fill:#FF8282;}
	.st4{fill:#FF681A;}
	.st5{fill:#FF0000;}
	.st6{fill:#0072B1;}
</style>
<g>
	<g>
		<path d="M25,0C11.19,0,0,11.19,0,25s11.19,25,25,25s25-11.19,25-25S38.81,0,25,0z M30.58,42.35c-0.88,0.18-1.2-0.38-1.2-0.86
			c0-0.59,0.03-2.51,0.03-4.9c0-1.68-0.56-2.74-1.2-3.31c3.96-0.44,8.09-1.95,8.09-8.8c0-1.95-0.67-3.54-1.82-4.78
			c0.18-0.44,0.79-2.27-0.18-4.72c0,0-1.49-0.47-4.86,1.83c-1.41-0.38-2.93-0.59-4.42-0.59c-1.49,0-2.98,0.2-4.42,0.59
			c-3.37-2.3-4.86-1.83-4.86-1.83c-0.97,2.45-0.35,4.28-0.18,4.72c-1.11,1.24-1.82,2.83-1.82,4.78c0,6.85,4.13,8.38,8.06,8.8
			c-0.5,0.44-0.97,1.24-1.11,2.39c-1.03,0.47-3.57,1.24-5.16-1.48c0,0-0.94-1.71-2.72-1.83c0,0-1.73,0-0.12,1.09
			c0,0,1.17,0.53,1.96,2.6c0,0,1.03,3.19,5.95,2.12c0,1.48,0.03,2.89,0.03,3.31c0,0.47-0.32,1.03-1.2,0.86
			c-7.03-2.36-12.1-9.03-12.1-16.91c0-9.86,7.91-17.83,17.69-17.83c9.76,0,17.69,7.97,17.67,17.83
			C42.68,33.32,37.61,39.99,30.58,42.35z"/>
	</g>
</g>
</svg>
